<svg version="1.2" baseProfile="tiny-ps" xmlns="http://www.w3.org/2000/svg" width="200" height="197"><style>.shp1{fill:#ff61f6}</style><g id="Layer"><path id="Layer" d="M35.27 1.66H163.9c19.5 0 35.27 15.8 35.27 35.33v123.85c0 19.54-15.77 35.33-35.27 35.33H35.27C15.77 196.17 0 180.38 0 160.84V36.99C0 17.46 15.77 1.66 35.27 1.66z" style="fill:#470137"/><g id="Layer"><path id="Layer" class="shp1" d="m104.73 52.78-24.9 41.15 26.56 43.64c.17.33.25.66.17 1-.09.33-.42.08-.92.16h-19c-1.33 0-2.24-.08-2.82-.91-1.75-3.49-3.57-6.9-5.31-10.39-1.75-3.41-3.66-6.9-5.65-10.48-1.99-3.57-3.98-7.15-5.97-10.8h-.17c-1.74 3.57-3.65 7.15-5.56 10.72-1.91 3.57-3.82 7.15-5.64 10.64-1.91 3.49-3.82 7.07-5.73 10.47-.33.83-.99.92-1.91.92H29.63c-.34 0-.58.16-.58-.25-.09-.33 0-.67.16-.92l25.81-42.39L29.88 52.7c-.25-.33-.34-.67-.17-.83.17-.25.5-.33.83-.33h18.84c.41 0 .83.08 1.16.16.33.17.58.42.83.75 1.58 3.57 3.4 7.15 5.31 10.72 1.99 3.58 3.9 7.07 5.98 10.56 1.99 3.49 3.81 6.98 5.56 10.56h.16c1.74-3.66 3.57-7.24 5.4-10.73 1.82-3.49 3.73-6.98 5.64-10.47 1.91-3.49 3.73-7.07 5.56-10.47.08-.34.25-.67.5-.83.33-.17.66-.25 1.08-.17h17.51c.41-.08.83.17.91.58.08.08-.08.42-.25.58z"/><path id="Layer" fill-rule="evenodd" class="shp1" d="M125.23 136.74c-5.23-2.41-9.55-6.4-12.53-11.31-3.07-5.07-4.57-11.39-4.57-18.95a34.23 34.23 0 0 1 4.57-17.54c3.15-5.4 7.71-9.89 13.19-12.88 5.81-3.24 12.78-4.82 21-4.82.41 0 .99 0 1.74.08s1.58.08 2.57.17V45.22c0-.58.25-.92.83-.92h16.85c.41-.08.75.25.83.59v79.29c0 1.5.08 3.16.17 4.99.16 1.75.24 3.41.33 4.82 0 .59-.25 1.08-.83 1.33-4.32 1.83-8.88 3.16-13.53 3.99-4.23.75-8.46 1.17-12.78 1.17-6.14.08-12.28-1.17-17.84-3.74zm25.97-49.46c-.74-.17-1.49-.33-2.24-.42-.91-.08-1.82-.16-2.74-.16-3.23 0-6.47.66-9.37 2.16a18.57 18.57 0 0 0-7.06 6.15c-1.82 2.66-2.74 6.23-2.74 10.56-.08 2.9.42 5.81 1.41 8.56.83 2.24 2.08 4.24 3.74 5.9 1.58 1.49 3.48 2.66 5.64 3.32 2.24.75 4.57 1.08 6.89 1.08 1.25 0 2.41-.08 3.49-.16 1.07.08 1.99-.09 2.98-.42V87.28z"/></g></g></svg>