<svg version="1.2" baseProfile="tiny-ps" xmlns="http://www.w3.org/2000/svg" width="150" height="146"><style>.shp1{fill:#31a8ff}</style><g id="Layer_2_1_"><g id="Surfaces"><g id="Photo_Surface"><g id="Outline_no_shadow"><path id="Layer" d="M26.56 0h96.88C138.13 0 150 11.85 150 26.52v92.96c0 14.67-11.87 26.52-26.56 26.52H26.56C11.88 146 0 134.15 0 119.48V26.52C0 11.85 11.88 0 26.56 0z" style="fill:#001e36"/></g></g></g><g id="Outlined_Mnemonics_Logos"><g id="Ps"><path id="Layer" fill-rule="evenodd" class="shp1" d="M33.75 102.39V38.18c0-.43.19-.68.63-.68 1.06 0 2.06 0 3.5-.06 1.5-.07 3.06-.07 4.75-.13 1.68-.06 3.5-.06 5.43-.12 1.94-.07 3.82-.07 5.69-.07 5.13 0 9.38.63 12.88 1.94 3.12 1.06 6 2.81 8.37 5.11 2 2 3.56 4.43 4.56 7.12.94 2.62 1.44 5.3 1.44 8.11 0 5.36-1.25 9.79-3.75 13.29-2.5 3.49-6 6.11-10.06 7.61-4.25 1.56-8.94 2.12-14.06 2.12-1.5 0-2.5 0-3.13-.06-.62-.06-1.5-.06-2.69-.06v20.02c.07.44-.25.82-.68.88H34.5c-.5 0-.75-.25-.75-.81zM47.38 70.5c.87.07 1.68.13 2.43.13h3.32c2.43 0 4.87-.38 7.18-1.12 2-.57 3.75-1.75 5.13-3.31 1.31-1.56 1.94-3.68 1.94-6.43.06-1.93-.44-3.87-1.44-5.55-1.06-1.62-2.56-2.87-4.38-3.56-2.31-.93-4.81-1.31-7.37-1.24-1.63 0-3.06 0-4.25.06-1.25-.06-2.13 0-2.56.06V70.5z"/><path id="Layer" class="shp1" d="M120 66.7c-1.87-1-3.87-1.69-6-2.12-2.31-.5-4.62-.81-7-.81-1.25-.07-2.56.12-3.75.43-.81.19-1.5.63-1.94 1.25-.31.5-.5 1.12-.5 1.69 0 .56.25 1.12.63 1.62.56.68 1.31 1.25 2.12 1.68 1.44.75 2.94 1.44 4.44 2.06 3.38 1.12 6.63 2.68 9.63 4.56 2.06 1.31 3.75 3.05 4.93 5.17 1 2 1.5 4.18 1.44 6.43.06 2.93-.81 5.87-2.44 8.3a15.629 15.629 0 0 1-7 5.55c-3.06 1.31-6.81 2-11.31 2-2.87 0-5.69-.25-8.5-.81-2.19-.38-4.37-1.06-6.37-2-.44-.25-.75-.69-.69-1.18V89.66c0-.19.06-.44.25-.56.19-.13.37-.06.56.06 2.44 1.43 5 2.43 7.75 3.06 2.38.62 4.88.93 7.38.93 2.37 0 4.06-.31 5.18-.87 1-.44 1.69-1.5 1.69-2.62 0-.87-.5-1.69-1.5-2.5s-3.06-1.74-6.12-2.93A38.193 38.193 0 0 1 94 79.74a16.14 16.14 0 0 1-4.75-5.3c-1-2-1.5-4.19-1.44-6.37 0-2.68.75-5.24 2.13-7.55 1.56-2.49 3.87-4.49 6.56-5.74 2.94-1.5 6.63-2.18 11.06-2.18 2.57 0 5.19.18 7.75.56 1.88.25 3.69.75 5.38 1.43.25.07.5.32.62.57.07.25.13.49.13.74v10.17c0 .25-.13.5-.31.63-.57.12-.88.12-1.13 0z"/></g></g></g></svg>