<svg xmlns="http://www.w3.org/2000/svg" width="247" height="117" viewBox="0 0 247 117">
  <g id="Rectangle_28" data-name="Rectangle 28" fill="#fff" stroke="rgba(132,130,130,0.96)" stroke-width="1.5">
    <rect width="72" height="31" rx="5" stroke="none"/>
    <rect x="0.75" y="0.75" width="70.5" height="29.5" rx="4.25" fill="none"/>
  </g>
  <text id="Finance" transform="translate(11 9)" fill="#6b6868" font-size="12" font-family="Raleway-ExtraBold, Raleway" font-weight="800" letter-spacing="0.01em"><tspan x="0" y="11">Finance</tspan></text>
  <g id="Rectangle_29" data-name="Rectangle 29" transform="translate(79)" fill="#fff" stroke="rgba(132,130,130,0.96)" stroke-width="1.5">
    <rect width="66" height="31" rx="5" stroke="none"/>
    <rect x="0.75" y="0.75" width="64.5" height="29.5" rx="4.25" fill="none"/>
  </g>
  <text id="Travel" transform="translate(93 9)" fill="#6b6868" font-size="12" font-family="Raleway-ExtraBold, Raleway" font-weight="800" letter-spacing="0.01em"><tspan x="0" y="11">Travel</tspan></text>
  <g id="Rectangle_30" data-name="Rectangle 30" transform="translate(0 43)" fill="#fff" stroke="rgba(132,130,130,0.96)" stroke-width="1.5">
    <rect width="96" height="31" rx="5" stroke="none"/>
    <rect x="0.75" y="0.75" width="94.5" height="29.5" rx="4.25" fill="none"/>
  </g>
  <text id="Healthcare" transform="translate(13 52)" fill="#6b6868" font-size="12" font-family="Raleway-ExtraBold, Raleway" font-weight="800" letter-spacing="0.01em"><tspan x="0" y="11">Healthcare</tspan></text>
  <g id="Rectangle_31" data-name="Rectangle 31" transform="translate(100 43)" fill="#fff" stroke="rgba(132,130,130,0.96)" stroke-width="1.5">
    <rect width="144" height="31" rx="5" stroke="none"/>
    <rect x="0.75" y="0.75" width="142.5" height="29.5" rx="4.25" fill="none"/>
  </g>
  <text id="Business_Intelligence" data-name="Business Intelligence" transform="translate(108 52)" fill="#6b6868" font-size="12" font-family="Raleway-ExtraBold, Raleway" font-weight="800" letter-spacing="0.01em"><tspan x="0" y="11">Business Intelligence</tspan></text>
  <g id="Rectangle_32" data-name="Rectangle 32" transform="translate(0 86)" fill="#fff" stroke="rgba(132,130,130,0.96)" stroke-width="1.5">
    <rect width="140" height="31" rx="5" stroke="none"/>
    <rect x="0.75" y="0.75" width="138.5" height="29.5" rx="4.25" fill="none"/>
  </g>
  <text id="Health_Beauty" data-name="Health &amp; Beauty" transform="translate(21 95)" fill="#6b6868" font-size="12" font-family="Raleway-ExtraBold, Raleway" font-weight="800" letter-spacing="0.01em"><tspan x="0" y="11">Health &amp; Beauty</tspan></text>
  <g id="Rectangle_33" data-name="Rectangle 33" transform="translate(145 86)" fill="#fff" stroke="rgba(132,130,130,0.96)" stroke-width="1.5">
    <rect width="102" height="31" rx="5" stroke="none"/>
    <rect x="0.75" y="0.75" width="100.5" height="29.5" rx="4.25" fill="none"/>
  </g>
  <text id="Bespoke" transform="translate(169 95)" fill="#6b6868" font-size="12" font-family="Raleway-ExtraBold, Raleway" font-weight="800" letter-spacing="0.01em"><tspan x="0" y="11">Bespoke</tspan></text>
  <g id="Rectangle_34" data-name="Rectangle 34" transform="translate(152)" fill="#fff" stroke="rgba(132,130,130,0.96)" stroke-width="1.5">
    <rect width="92" height="31" rx="5" stroke="none"/>
    <rect x="0.75" y="0.75" width="90.5" height="29.5" rx="4.25" fill="none"/>
  </g>
  <text id="e-commerce" transform="translate(160 9)" fill="#6b6868" font-size="12" font-family="Raleway-ExtraBold, Raleway" font-weight="800" letter-spacing="0.01em"><tspan x="0" y="11">e-commerce</tspan></text>
</svg>
